<mxfile host="www.draw.io" modified="2019-12-04T20:21:20.876Z" agent="Mozilla/5.0 (Windows NT 10.0; Win64; x64) AppleWebKit/537.36 (KHTML, like Gecko) Chrome/78.0.3904.97 Safari/537.36" etag="d58rk2gluzXfOegr9d8G" version="12.3.6" type="github" pages="1">
  <diagram id="qj_NuWzN8KbYVyg2O2Ky" name="Page-1">
    <mxGraphModel dx="1550" dy="868" grid="1" gridSize="10" guides="1" tooltips="1" connect="1" arrows="1" fold="1" page="1" pageScale="1" pageWidth="827" pageHeight="1169" math="0" shadow="0">
      <root>
        <mxCell id="0"/>
        <mxCell id="1" parent="0"/>
        <mxCell id="p4KBoVUchiTkdjJOsmrw-1" value="Battery " style="swimlane;fontStyle=0;childLayout=stackLayout;horizontal=1;startSize=26;fillColor=none;horizontalStack=0;resizeParent=1;resizeParentMax=0;resizeLast=0;collapsible=1;marginBottom=0;" parent="1" vertex="1">
          <mxGeometry x="20" y="740" width="170" height="78" as="geometry"/>
        </mxCell>
        <mxCell id="p4KBoVUchiTkdjJOsmrw-2" value="+ getCapacity()" style="text;strokeColor=none;fillColor=none;align=left;verticalAlign=top;spacingLeft=4;spacingRight=4;overflow=hidden;rotatable=0;points=[[0,0.5],[1,0.5]];portConstraint=eastwest;" parent="p4KBoVUchiTkdjJOsmrw-1" vertex="1">
          <mxGeometry y="26" width="170" height="26" as="geometry"/>
        </mxCell>
        <mxCell id="p4KBoVUchiTkdjJOsmrw-3" value="+ setCapacity(): Mandatory int " style="text;strokeColor=none;fillColor=none;align=left;verticalAlign=top;spacingLeft=4;spacingRight=4;overflow=hidden;rotatable=0;points=[[0,0.5],[1,0.5]];portConstraint=eastwest;" parent="p4KBoVUchiTkdjJOsmrw-1" vertex="1">
          <mxGeometry y="52" width="170" height="26" as="geometry"/>
        </mxCell>
        <mxCell id="p4KBoVUchiTkdjJOsmrw-5" value="Item Implements Concept" style="swimlane;fontStyle=0;childLayout=stackLayout;horizontal=1;startSize=26;fillColor=none;horizontalStack=0;resizeParent=1;resizeParentMax=0;resizeLast=0;collapsible=1;marginBottom=0;" parent="1" vertex="1">
          <mxGeometry x="320" y="360" width="150" height="52" as="geometry"/>
        </mxCell>
        <mxCell id="p4KBoVUchiTkdjJOsmrw-9" value="RAM" style="swimlane;fontStyle=0;childLayout=stackLayout;horizontal=1;startSize=26;fillColor=none;horizontalStack=0;resizeParent=1;resizeParentMax=0;resizeLast=0;collapsible=1;marginBottom=0;" parent="1" vertex="1">
          <mxGeometry x="220" y="740" width="170" height="78" as="geometry"/>
        </mxCell>
        <mxCell id="p4KBoVUchiTkdjJOsmrw-10" value="+ getAmount()" style="text;strokeColor=none;fillColor=none;align=left;verticalAlign=top;spacingLeft=4;spacingRight=4;overflow=hidden;rotatable=0;points=[[0,0.5],[1,0.5]];portConstraint=eastwest;" parent="p4KBoVUchiTkdjJOsmrw-9" vertex="1">
          <mxGeometry y="26" width="170" height="26" as="geometry"/>
        </mxCell>
        <mxCell id="p4KBoVUchiTkdjJOsmrw-11" value="+ setAmount(): Mandatory int" style="text;strokeColor=none;fillColor=none;align=left;verticalAlign=top;spacingLeft=4;spacingRight=4;overflow=hidden;rotatable=0;points=[[0,0.5],[1,0.5]];portConstraint=eastwest;" parent="p4KBoVUchiTkdjJOsmrw-9" vertex="1">
          <mxGeometry y="52" width="170" height="26" as="geometry"/>
        </mxCell>
        <mxCell id="p4KBoVUchiTkdjJOsmrw-13" value="Screen" style="swimlane;fontStyle=0;childLayout=stackLayout;horizontal=1;startSize=26;fillColor=none;horizontalStack=0;resizeParent=1;resizeParentMax=0;resizeLast=0;collapsible=1;marginBottom=0;" parent="1" vertex="1">
          <mxGeometry x="420" y="740" width="170" height="78" as="geometry"/>
        </mxCell>
        <mxCell id="p4KBoVUchiTkdjJOsmrw-14" value="+ getLength()" style="text;strokeColor=none;fillColor=none;align=left;verticalAlign=top;spacingLeft=4;spacingRight=4;overflow=hidden;rotatable=0;points=[[0,0.5],[1,0.5]];portConstraint=eastwest;" parent="p4KBoVUchiTkdjJOsmrw-13" vertex="1">
          <mxGeometry y="26" width="170" height="26" as="geometry"/>
        </mxCell>
        <mxCell id="p4KBoVUchiTkdjJOsmrw-15" value="+ setLength(): Mandatory int" style="text;strokeColor=none;fillColor=none;align=left;verticalAlign=top;spacingLeft=4;spacingRight=4;overflow=hidden;rotatable=0;points=[[0,0.5],[1,0.5]];portConstraint=eastwest;" parent="p4KBoVUchiTkdjJOsmrw-13" vertex="1">
          <mxGeometry y="52" width="170" height="26" as="geometry"/>
        </mxCell>
        <mxCell id="p4KBoVUchiTkdjJOsmrw-18" value="Storage" style="swimlane;fontStyle=0;childLayout=stackLayout;horizontal=1;startSize=26;fillColor=none;horizontalStack=0;resizeParent=1;resizeParentMax=0;resizeLast=0;collapsible=1;marginBottom=0;" parent="1" vertex="1">
          <mxGeometry x="620" y="740" width="160" height="78" as="geometry"/>
        </mxCell>
        <mxCell id="p4KBoVUchiTkdjJOsmrw-19" value="+ getSize()" style="text;strokeColor=none;fillColor=none;align=left;verticalAlign=top;spacingLeft=4;spacingRight=4;overflow=hidden;rotatable=0;points=[[0,0.5],[1,0.5]];portConstraint=eastwest;" parent="p4KBoVUchiTkdjJOsmrw-18" vertex="1">
          <mxGeometry y="26" width="160" height="26" as="geometry"/>
        </mxCell>
        <mxCell id="p4KBoVUchiTkdjJOsmrw-20" value="+ setSize(): Mandatory int" style="text;strokeColor=none;fillColor=none;align=left;verticalAlign=top;spacingLeft=4;spacingRight=4;overflow=hidden;rotatable=0;points=[[0,0.5],[1,0.5]];portConstraint=eastwest;" parent="p4KBoVUchiTkdjJOsmrw-18" vertex="1">
          <mxGeometry y="52" width="160" height="26" as="geometry"/>
        </mxCell>
        <mxCell id="p4KBoVUchiTkdjJOsmrw-22" value="Extends" style="endArrow=block;endSize=16;endFill=0;html=1;" parent="1" edge="1">
          <mxGeometry width="160" relative="1" as="geometry">
            <mxPoint x="100" y="738" as="sourcePoint"/>
            <mxPoint x="330" y="412" as="targetPoint"/>
            <Array as="points">
              <mxPoint x="100" y="680"/>
              <mxPoint x="240" y="680"/>
              <mxPoint x="330" y="680"/>
            </Array>
          </mxGeometry>
        </mxCell>
        <mxCell id="p4KBoVUchiTkdjJOsmrw-23" value="Extends" style="endArrow=block;endSize=16;endFill=0;html=1;" parent="1" edge="1">
          <mxGeometry x="0.1317" width="160" relative="1" as="geometry">
            <mxPoint x="300" y="742" as="sourcePoint"/>
            <mxPoint x="380" y="412" as="targetPoint"/>
            <Array as="points">
              <mxPoint x="300" y="693"/>
              <mxPoint x="380" y="693"/>
            </Array>
            <mxPoint as="offset"/>
          </mxGeometry>
        </mxCell>
        <mxCell id="p4KBoVUchiTkdjJOsmrw-24" value="Extends" style="endArrow=block;endSize=16;endFill=0;html=1;exitX=0.5;exitY=0;exitDx=0;exitDy=0;" parent="1" edge="1">
          <mxGeometry width="160" relative="1" as="geometry">
            <mxPoint x="705" y="738" as="sourcePoint"/>
            <mxPoint x="460" y="412" as="targetPoint"/>
            <Array as="points">
              <mxPoint x="705" y="678"/>
              <mxPoint x="460" y="678"/>
            </Array>
          </mxGeometry>
        </mxCell>
        <mxCell id="p4KBoVUchiTkdjJOsmrw-25" value="Extends" style="endArrow=block;endSize=16;endFill=0;html=1;exitX=0.5;exitY=0;exitDx=0;exitDy=0;" parent="1" edge="1">
          <mxGeometry x="0.2512" width="160" relative="1" as="geometry">
            <mxPoint x="505" y="741" as="sourcePoint"/>
            <mxPoint x="413" y="411" as="targetPoint"/>
            <Array as="points">
              <mxPoint x="505" y="690"/>
              <mxPoint x="413" y="690"/>
            </Array>
            <mxPoint as="offset"/>
          </mxGeometry>
        </mxCell>
        <mxCell id="p4KBoVUchiTkdjJOsmrw-26" value="Phone implements Concept" style="swimlane;fontStyle=0;childLayout=stackLayout;horizontal=1;startSize=26;fillColor=none;horizontalStack=0;resizeParent=1;resizeParentMax=0;resizeLast=0;collapsible=1;marginBottom=0;" parent="1" vertex="1">
          <mxGeometry x="60" y="360" width="210" height="274" as="geometry"/>
        </mxCell>
        <mxCell id="p4KBoVUchiTkdjJOsmrw-27" value="+ getSerialNumber()" style="text;strokeColor=none;fillColor=none;align=left;verticalAlign=top;spacingLeft=4;spacingRight=4;overflow=hidden;rotatable=0;points=[[0,0.5],[1,0.5]];portConstraint=eastwest;" parent="p4KBoVUchiTkdjJOsmrw-26" vertex="1">
          <mxGeometry y="26" width="210" height="26" as="geometry"/>
        </mxCell>
        <mxCell id="p4KBoVUchiTkdjJOsmrw-28" value="+ setSerialNumner(): Mandatory int" style="text;strokeColor=none;fillColor=none;align=left;verticalAlign=top;spacingLeft=4;spacingRight=4;overflow=hidden;rotatable=0;points=[[0,0.5],[1,0.5]];portConstraint=eastwest;" parent="p4KBoVUchiTkdjJOsmrw-26" vertex="1">
          <mxGeometry y="52" width="210" height="26" as="geometry"/>
        </mxCell>
        <mxCell id="p4KBoVUchiTkdjJOsmrw-29" value="+ getQuantity()" style="text;strokeColor=none;fillColor=none;align=left;verticalAlign=top;spacingLeft=4;spacingRight=4;overflow=hidden;rotatable=0;points=[[0,0.5],[1,0.5]];portConstraint=eastwest;" parent="p4KBoVUchiTkdjJOsmrw-26" vertex="1">
          <mxGeometry y="78" width="210" height="26" as="geometry"/>
        </mxCell>
        <mxCell id="p4KBoVUchiTkdjJOsmrw-31" value="+ setQuantity(): Mandatory int" style="text;strokeColor=none;fillColor=none;align=left;verticalAlign=top;spacingLeft=4;spacingRight=4;overflow=hidden;rotatable=0;points=[[0,0.5],[1,0.5]];portConstraint=eastwest;" parent="p4KBoVUchiTkdjJOsmrw-26" vertex="1">
          <mxGeometry y="104" width="210" height="26" as="geometry"/>
        </mxCell>
        <mxCell id="p4KBoVUchiTkdjJOsmrw-45" value="+ getNumDaysDue()" style="text;strokeColor=none;fillColor=none;align=left;verticalAlign=top;spacingLeft=4;spacingRight=4;overflow=hidden;rotatable=0;points=[[0,0.5],[1,0.5]];portConstraint=eastwest;" parent="p4KBoVUchiTkdjJOsmrw-26" vertex="1">
          <mxGeometry y="130" width="210" height="26" as="geometry"/>
        </mxCell>
        <mxCell id="p4KBoVUchiTkdjJOsmrw-46" value="+ setNumDaysDue(): Mandatory int" style="text;strokeColor=none;fillColor=none;align=left;verticalAlign=top;spacingLeft=4;spacingRight=4;overflow=hidden;rotatable=0;points=[[0,0.5],[1,0.5]];portConstraint=eastwest;" parent="p4KBoVUchiTkdjJOsmrw-26" vertex="1">
          <mxGeometry y="156" width="210" height="26" as="geometry"/>
        </mxCell>
        <mxCell id="p4KBoVUchiTkdjJOsmrw-47" value="+ getPerDayPenalty()" style="text;strokeColor=none;fillColor=none;align=left;verticalAlign=top;spacingLeft=4;spacingRight=4;overflow=hidden;rotatable=0;points=[[0,0.5],[1,0.5]];portConstraint=eastwest;" parent="p4KBoVUchiTkdjJOsmrw-26" vertex="1">
          <mxGeometry y="182" width="210" height="26" as="geometry"/>
        </mxCell>
        <mxCell id="p4KBoVUchiTkdjJOsmrw-48" value="+ setPerDayPenalty(): Mandatory int" style="text;strokeColor=none;fillColor=none;align=left;verticalAlign=top;spacingLeft=4;spacingRight=4;overflow=hidden;rotatable=0;points=[[0,0.5],[1,0.5]];portConstraint=eastwest;" parent="p4KBoVUchiTkdjJOsmrw-26" vertex="1">
          <mxGeometry y="208" width="210" height="22" as="geometry"/>
        </mxCell>
        <mxCell id="p4KBoVUchiTkdjJOsmrw-49" value="+ getUnitPrice()" style="text;strokeColor=none;fillColor=none;align=left;verticalAlign=top;spacingLeft=4;spacingRight=4;overflow=hidden;rotatable=0;points=[[0,0.5],[1,0.5]];portConstraint=eastwest;" parent="p4KBoVUchiTkdjJOsmrw-26" vertex="1">
          <mxGeometry y="230" width="210" height="22" as="geometry"/>
        </mxCell>
        <mxCell id="p4KBoVUchiTkdjJOsmrw-50" value="+ setPerDayPenalty(): Mandatory int" style="text;strokeColor=none;fillColor=none;align=left;verticalAlign=top;spacingLeft=4;spacingRight=4;overflow=hidden;rotatable=0;points=[[0,0.5],[1,0.5]];portConstraint=eastwest;" parent="p4KBoVUchiTkdjJOsmrw-26" vertex="1">
          <mxGeometry y="252" width="210" height="22" as="geometry"/>
        </mxCell>
        <mxCell id="p4KBoVUchiTkdjJOsmrw-51" value="Order implments Concept" style="swimlane;fontStyle=0;childLayout=stackLayout;horizontal=1;startSize=26;fillColor=none;horizontalStack=0;resizeParent=1;resizeParentMax=0;resizeLast=0;collapsible=1;marginBottom=0;" parent="1" vertex="1">
          <mxGeometry x="190" y="90" width="230" height="182" as="geometry"/>
        </mxCell>
        <mxCell id="p4KBoVUchiTkdjJOsmrw-52" value="+ getPhone()" style="text;strokeColor=none;fillColor=none;align=left;verticalAlign=top;spacingLeft=4;spacingRight=4;overflow=hidden;rotatable=0;points=[[0,0.5],[1,0.5]];portConstraint=eastwest;" parent="p4KBoVUchiTkdjJOsmrw-51" vertex="1">
          <mxGeometry y="26" width="230" height="26" as="geometry"/>
        </mxCell>
        <mxCell id="p4KBoVUchiTkdjJOsmrw-53" value="+ setPhone(): Mandatory int" style="text;strokeColor=none;fillColor=none;align=left;verticalAlign=top;spacingLeft=4;spacingRight=4;overflow=hidden;rotatable=0;points=[[0,0.5],[1,0.5]];portConstraint=eastwest;" parent="p4KBoVUchiTkdjJOsmrw-51" vertex="1">
          <mxGeometry y="52" width="230" height="26" as="geometry"/>
        </mxCell>
        <mxCell id="p4KBoVUchiTkdjJOsmrw-54" value="+ getParts()" style="text;strokeColor=none;fillColor=none;align=left;verticalAlign=top;spacingLeft=4;spacingRight=4;overflow=hidden;rotatable=0;points=[[0,0.5],[1,0.5]];portConstraint=eastwest;" parent="p4KBoVUchiTkdjJOsmrw-51" vertex="1">
          <mxGeometry y="78" width="230" height="26" as="geometry"/>
        </mxCell>
        <mxCell id="p4KBoVUchiTkdjJOsmrw-60" value="+ setParts(): Mandatory ArrayList&lt;Item&gt;" style="text;strokeColor=none;fillColor=none;align=left;verticalAlign=top;spacingLeft=4;spacingRight=4;overflow=hidden;rotatable=0;points=[[0,0.5],[1,0.5]];portConstraint=eastwest;" parent="p4KBoVUchiTkdjJOsmrw-51" vertex="1">
          <mxGeometry y="104" width="230" height="26" as="geometry"/>
        </mxCell>
        <mxCell id="p4KBoVUchiTkdjJOsmrw-61" value="+ getCost()" style="text;strokeColor=none;fillColor=none;align=left;verticalAlign=top;spacingLeft=4;spacingRight=4;overflow=hidden;rotatable=0;points=[[0,0.5],[1,0.5]];portConstraint=eastwest;" parent="p4KBoVUchiTkdjJOsmrw-51" vertex="1">
          <mxGeometry y="130" width="230" height="26" as="geometry"/>
        </mxCell>
        <mxCell id="p4KBoVUchiTkdjJOsmrw-69" value="+ setCost(): Mandatory double" style="text;strokeColor=none;fillColor=none;align=left;verticalAlign=top;spacingLeft=4;spacingRight=4;overflow=hidden;rotatable=0;points=[[0,0.5],[1,0.5]];portConstraint=eastwest;" parent="p4KBoVUchiTkdjJOsmrw-51" vertex="1">
          <mxGeometry y="156" width="230" height="26" as="geometry"/>
        </mxCell>
        <mxCell id="p4KBoVUchiTkdjJOsmrw-71" value="Contains" style="endArrow=open;endSize=12;dashed=1;html=1;exitX=0.65;exitY=1.085;exitDx=0;exitDy=0;exitPerimeter=0;" parent="1" edge="1" source="p4KBoVUchiTkdjJOsmrw-69">
          <mxGeometry width="160" relative="1" as="geometry">
            <mxPoint x="420" y="310" as="sourcePoint"/>
            <mxPoint x="404" y="359" as="targetPoint"/>
            <Array as="points">
              <mxPoint x="340" y="320"/>
              <mxPoint x="404" y="320"/>
            </Array>
          </mxGeometry>
        </mxCell>
        <mxCell id="p4KBoVUchiTkdjJOsmrw-70" value="Contains" style="endArrow=open;endSize=12;dashed=1;html=1;entryX=0.47;entryY=-0.001;entryDx=0;entryDy=0;exitX=0.167;exitY=1.146;exitDx=0;exitDy=0;entryPerimeter=0;exitPerimeter=0;" parent="1" source="p4KBoVUchiTkdjJOsmrw-69" target="p4KBoVUchiTkdjJOsmrw-26" edge="1">
          <mxGeometry width="160" relative="1" as="geometry">
            <mxPoint x="20" y="840" as="sourcePoint"/>
            <mxPoint x="180" y="840" as="targetPoint"/>
            <Array as="points">
              <mxPoint x="228" y="320"/>
              <mxPoint x="159" y="320"/>
            </Array>
          </mxGeometry>
        </mxCell>
      </root>
    </mxGraphModel>
  </diagram>
</mxfile>
